<?xml version="1.0" standalone="no"?>
<!DOCTYPE svg PUBLIC "-//W3C//DTD SVG 20010904//EN"
 "http://www.w3.org/TR/2001/REC-SVG-20010904/DTD/svg10.dtd">
<svg version="1.0" xmlns="http://www.w3.org/2000/svg"
 width="2000.000000pt" height="2000.000000pt" viewBox="0 0 2000.000000 2000.000000"
 preserveAspectRatio="xMidYMid meet">
<metadata>
Created by potrace 1.15, written by Peter Selinger 2001-2017
</metadata>
<g transform="translate(0.000000,2000.000000) scale(0.100000,-0.100000)"
fill="#000000" stroke="none">
<path d="M9945 19270 c-373 -24 -777 -169 -1131 -405 -225 -151 -368 -278
-450 -400 -47 -69 -2631 -4376 -2639 -4397 -3 -9 102 -76 315 -203 176 -104
319 -192 319 -195 0 -3 -654 -390 -1454 -860 -800 -470 -1453 -859 -1452 -864
2 -5 189 -115 415 -245 308 -176 411 -239 407 -250 -3 -9 -428 -762 -944
-1676 -516 -913 -951 -1685 -966 -1715 -33 -65 -77 -236 -101 -386 -22 -148
-23 -443 0 -579 97 -582 431 -1056 984 -1398 221 -137 548 -277 712 -306 64
-11 5206 -98 5216 -89 7 7 33 1389 26 1398 -2 3 -1128 24 -2502 47 l-2499 42
-83 40 c-122 59 -234 136 -315 217 -113 115 -163 243 -148 381 6 59 46 132
926 1690 506 895 924 1631 928 1636 4 4 201 -103 437 -238 236 -135 432 -245
437 -245 4 0 7 761 7 1690 0 930 2 1690 4 1690 3 0 121 -70 263 -155 142 -85
263 -155 268 -155 6 1 584 958 1285 2128 788 1315 1289 2141 1311 2163 69 67
253 169 373 204 184 55 347 26 464 -82 29 -28 289 -460 981 -1635 517 -879
942 -1602 943 -1608 2 -6 -185 -122 -415 -257 -256 -152 -414 -250 -408 -256
5 -5 665 -384 1468 -841 l1458 -833 3 1700 c1 935 0 1702 -3 1705 -2 3 -201
-111 -441 -252 -240 -142 -437 -256 -438 -254 -2 2 -445 755 -987 1673 -541
919 -1005 1697 -1030 1730 -25 33 -97 105 -160 159 -410 356 -873 519 -1384
486z"/>
<path d="M14418 12333 c-335 -186 -608 -340 -608 -343 0 -3 548 -991 1217
-2195 l1217 -2190 0 -180 c-1 -152 -4 -192 -22 -257 -46 -170 -125 -274 -255
-338 l-68 -33 -1372 -13 c-755 -7 -1598 -15 -1874 -18 l-503 -6 0 506 c0 278
-4 504 -8 502 -45 -17 -2930 -1726 -2928 -1733 3 -10 2912 -1675 2928 -1675 4
0 8 223 8 495 0 272 1 495 3 495 1 1 883 10 1959 20 1331 13 1978 23 2020 30
106 19 296 88 445 160 529 256 878 696 1018 1285 46 193 59 321 59 585 -1 359
-40 593 -126 762 -99 196 -2484 4478 -2493 4478 -5 0 -283 -152 -617 -337z"/>
<path d="M8610 12061 c-206 -44 -406 -164 -535 -321 -173 -211 -261 -483 -295
-911 -17 -204 -8 -773 14 -939 71 -536 241 -826 581 -995 155 -78 234 -96 430
-102 233 -7 397 29 557 122 332 194 499 535 549 1123 13 156 6 781 -10 912
-32 250 -97 492 -167 619 -144 263 -371 432 -659 492 -121 25 -345 25 -465 0z
m365 -512 c80 -30 166 -112 210 -203 77 -156 100 -361 100 -906 0 -442 -12
-607 -55 -775 -36 -141 -106 -238 -212 -296 -61 -33 -67 -34 -173 -34 -97 0
-116 3 -160 25 -63 30 -141 109 -178 177 -60 112 -96 342 -106 678 -11 407 13
832 60 1013 10 40 33 100 50 133 41 76 132 161 201 188 73 28 188 28 263 0z"/>
<path d="M11330 11978 c-34 -116 -128 -252 -223 -324 -154 -117 -419 -194
-667 -194 l-50 0 0 -210 0 -210 375 0 375 0 0 -1075 0 -1075 310 0 310 0 0
1565 0 1565 -208 0 -209 0 -13 -42z"/>
<path d="M6330 2355 l0 -1605 330 0 330 0 0 575 0 575 484 0 c379 0 501 3 559
14 398 76 665 365 741 802 21 116 21 380 1 494 -74 420 -348 677 -790 740 -42
6 -391 10 -862 10 l-793 0 0 -1605z m1461 1031 c224 -48 329 -194 329 -456 0
-210 -65 -342 -202 -411 -110 -56 -149 -60 -555 -66 l-373 -6 0 477 0 476 368
0 c277 0 383 -4 433 -14z"/>
<path d="M9280 2355 l0 -1605 1200 0 1200 0 0 275 0 275 -870 0 -870 0 0 415
0 415 770 0 770 0 0 275 0 275 -770 0 -770 0 0 360 0 360 830 0 830 0 0 280 0
280 -1160 0 -1160 0 0 -1605z"/>
<path d="M11910 3680 l0 -280 490 0 490 0 0 -1325 0 -1325 330 0 330 0 0 1325
0 1325 470 0 470 0 0 280 0 280 -1290 0 -1290 0 0 -280z"/>
</g>
</svg>
